<?xml version="1.0" encoding="UTF-8"?>
<svg xmlns="http://www.w3.org/2000/svg" width="512" height="512" viewBox="0 0 512 512">
  <defs>
    <linearGradient id="lexGrad" x1="0%" y1="0%" x2="100%" y2="100%">
      <stop offset="0%" stop-color="#9333ea"/>
      <stop offset="100%" stop-color="#7c3aed"/>
    </linearGradient>
  </defs>
  <rect width="512" height="512" rx="154" ry="154" fill="url(#lexGrad)"/>
  <g fill="none" stroke="#ffffff" stroke-width="2" stroke-linecap="round" stroke-linejoin="round"
     transform="translate(256 256) scale(10.666666666666666) translate(-12 -12)">
    <path d="M12 3v18"/>
    <path d="m19 8 3 8a5 5 0 0 1-6 0zV7"/>
    <path d="M3 7h1a17 17 0 0 0 8-2 17 17 0 0 0 8 2h1"/>
    <path d="m5 8 3 8a5 5 0 0 1-6 0zV7"/>
    <path d="M7 21h10"/>
  </g>
</svg>